<?xml version="1.0" encoding="utf-8"?>
<!-- Generator: Adobe Illustrator 21.1.0, SVG Export Plug-In . SVG Version: 6.00 Build 0)  -->
<svg version="1.1" id="Layer_1" xmlns="http://www.w3.org/2000/svg" xmlns:xlink="http://www.w3.org/1999/xlink" x="0px" y="0px"
	 viewBox="0 0 300 300" style="enable-background:new 0 0 300 300;" xml:space="preserve">
<style type="text/css">
	.st0{display:none;fill:#00887E;}
	.st1{opacity:5.000000e-02;}
	.st2{fill:#50596C;}
</style>
<polyline class="st0" points="0,0 300,0 300,300 0,300 0,0 "/>
<g class="st1">
	<path d="M11.8,147.1L11.8,147.1c2.6-2.6,5.3-3.2,15.5-3.2c7.9,0,12.7-2.6,15.6-8c2.3-4.2,3.2-9.1,4.3-20l0.3-2.7
		c0.1-1.1,0.2-2,0.3-2.8c0.6-5.4,4.7-8.2,12.1-9c0.1-0.2,0.1-0.3,0.2-0.5c-0.7,0.1-1.3,0.1-2,0.2c-6.8,1.1-10.7,4.2-11.2,9.6
		l-0.3,2.8l-0.3,2.7c-1.1,10.8-2,15.5-4.2,19.6c-2.7,5-7.2,7.4-14.8,7.4c-10.5,0-13.4,0.6-16.2,3.5l0,0c0.1,0-5.1,6-8.1,8.7
		c-0.6,0.6-1.7,1.5-3,2.7v0.8c1.6-1.4,2.9-2.5,3.6-3.2C6.6,153,11.9,147.1,11.8,147.1z"/>
	<path d="M11.1,134.6c3.1-1.3,6.3-2.4,9.5-3.4c4.3-1.3,7.9-4.3,9.9-8.4c1.7-3.1,2.5-6,4-12.6c1.5-6.8,2.4-9.8,4-12.8
		c1.9-3.8,5.2-6.8,9.2-8.2c4-1.5,7.7-2.2,11.4-2.2c2.2,0,4.5,0.3,6.9,0.7c0.2-0.3,0.3-0.6,0.5-0.8c-2.5-0.5-5-0.8-7.3-0.8
		c-3.9,0-7.7,0.7-11.8,2.3c-4.2,1.5-7.7,4.6-9.7,8.7c-1.7,3.1-2.6,6.2-4,12.5c-1.6,7.1-2.4,10-4,13c-1.9,3.8-5.2,6.6-9.3,7.9
		c-3.9,1.2-7,2.3-9.6,3.5c-4.8,2-8,4-10.8,6.8v1.1C2.9,138.8,6.1,136.7,11.1,134.6z"/>
	<path d="M11.1,160.9c6.4-6.4,5.9-6,7.1-6.2c0.1,0,0.3,0,0.6,0c1.7,0,6.2,0.4,8.9,0.4c5.4,0,7.4-0.3,9.2-1.5l1.3-0.9
		c0.6-0.4,1.1-0.7,1.8-1c2.2-1.1,4.5-2,6.8-2.7c4.4-1.4,6.8-3.1,8.2-6.4c-0.1-0.8-0.1-1.6-0.2-2.5c-1.2,4.5-3.3,6.5-8.3,8.1
		c-2.4,0.7-4.7,1.6-7,2.7c-0.7,0.4-1.2,0.7-1.8,1.1l-1.3,0.8c-1.7,1-3.5,1.3-8.7,1.3c-2.7,0-7.3-0.4-9.1-0.4c-0.3,0-0.5,0-0.6,0
		c-1.5,0.3-0.9-0.2-7.6,6.5c-2,1.9-4,3.6-6.2,5.3c-0.7,0.6-2.5,1.9-4.2,3.2v1.3c1.8-1.4,4-3,4.8-3.7C7.6,164.1,9.6,162.4,11.1,160.9
		z"/>
	<path d="M14.9,121.2c1.6-1.9,2.9-5,4.5-10.7c0.2-0.8,1.9-6.7,2.4-8.5c3.5-11.8,7.1-18,12.8-19.7c2.5-0.8,3.1-1,9.8-3.7
		c7.4-3,11.8-4.4,16.8-4.9c1-0.1,2-0.1,3-0.1c3.3,0,6.6,0.5,9.8,1.7c0.2-0.3,0.4-0.6,0.7-0.9c-3.6-1.4-7.2-2-10.9-2c-1,0-2,0-3,0.1
		c-5.1,0.5-9.6,1.9-17.1,4.9c-6.7,2.7-7.2,2.9-9.7,3.7c-6.2,1.9-9.9,8.3-13.5,20.4c-0.5,1.8-2.2,7.7-2.4,8.5
		c-1.6,5.5-2.8,8.6-4.3,10.3c-2,2.4-4.5,3.3-10.7,4.8C2,125.4,1,125.6,0,125.9v1.3c0.9-0.2,1.9-0.5,2.9-0.7
		C10.1,124.8,12.7,123.8,14.9,121.2z"/>
	<path d="M2,71.3c0.3-0.1,2.2-1.1,2.8-1.5c3.3-1.8,6.4-3.8,9.4-6c2.2-1.6,2.8-2.2,8.3-8.2c6.4-6.9,10.6-10.1,15.1-10.1
		c0.9,0,1.8,0.1,2.8,0.4c4.6,1.2,11.1,2.1,19.2,2.5c7,0.4,13,0.5,22.1,0.5c4.7,0,8.7,0.5,15,1.5c1.7,0.3,3.1,0.5,4.2,0.7
		c0.9-0.5,1.8-1.1,2.8-1.6c-1.6-0.2-3.6-0.6-6.6-1.1c-6.4-1.1-10.5-1.6-15.4-1.6c-9.1,0-15.1-0.1-22-0.5c-8-0.5-14.4-1.3-18.8-2.5
		c-1.1-0.3-2.1-0.4-3.1-0.4c-2.6,0-5.2,0.9-7.8,2.5c-2.8,1.8-5.2,4-9,8.1c-5.4,5.8-6,6.4-8,7.9c-2.9,2.2-5.9,4.2-9.1,5.9
		c-0.7,0.4-2.6,1.3-2.8,1.5C0.7,69.6,0.3,69.8,0,70v2.6c0.1-0.1,0.1-0.1,0.2-0.2C0.6,72.1,1.1,71.8,2,71.3z"/>
	<path d="M19,184c2.9-1.1,6.4-2.7,11.1-4.9l13-6.2c4.4-2.1,8.1-3.8,11.6-5.3c1.9-0.8,3.7-1.5,5.4-2.2c-0.1-0.3-0.2-0.6-0.3-1
		c-1.8,0.7-3.6,1.4-5.6,2.3c-3.5,1.5-7.2,3.2-11.6,5.3c-2.3,1.1-11,5.2-13,6.2c-3.6,1.7-7.3,3.4-11,4.8c-4.2,1.7-8.3,3.5-12.3,5.7
		c-1,0.5-3.9,2.1-6.3,3.3v1.2c2.4-1.3,5.7-3,6.8-3.6C10.8,187.5,14.8,185.6,19,184z"/>
	<path d="M25.7,201.1c1.6-0.8,3.2-1.5,4.9-2.3c4.1-1.9,21.2-9.5,21.2-9.5l0,0c6.8-3.1,12.3-4.8,17.5-5.1c-0.2-0.3-0.4-0.7-0.6-1
		c-5.2,0.4-10.6,2.1-17.3,5.2l0,0c0,0-17.1,7.6-21.2,9.5c-9.5,4.4-18.8,9.2-27.9,14.5c-0.8,0.4-1.5,0.9-2.3,1.3v1.2
		c0.9-0.5,1.9-1.1,2.8-1.6C10.3,208.9,17.9,204.9,25.7,201.1z"/>
	<path d="M20.7,275c-0.6-5.6-4.1-8.7-11.2-8.7c-2,0-3.5,0-7.4-0.2L0,266v1.1l2.1,0.1c3.9,0.1,5.4,0.1,7.4,0.1
		c6.6,0,9.7,2.7,10.2,7.8c0.4,3.9-0.4,7.9-2.7,15.6c-0.8,2.5-2.7,5.8-5.3,9.3h1.1c2.5-3.4,4.4-6.6,5.1-9.1
		C20.2,283.1,21.1,279,20.7,275z"/>
	<path d="M34.7,189.3c3.7-1.6,7.3-3.3,10.9-5.2l1.9-1.1c2.3-1.3,4.7-2.5,7.1-3.7c3.3-1.6,6.5-2.9,9.7-4c-0.2-0.4-0.4-0.7-0.5-1.1
		c-3.1,1.1-6.3,2.4-9.6,4l-5,2.5l-2.2,1.2l-2,1.1c-2.5,1.3-5.7,2.9-10.8,5.1c-1.6,0.8-12.2,5.4-15.7,6.9c-6.2,2.8-12.4,5.6-18.5,8.6
		v1.5c6.3-3,12.6-6,19-8.8C22.5,194.7,33,190.1,34.7,189.3z"/>
	<path d="M0.3,275.7c-0.1,0-0.2-0.1-0.3-0.1v1.1l0,0c5,1.6,8,4.6,8,9.1c0,5.2-3,9.8-8,13.6v0.6h0.9c5-3.9,8.1-8.7,8.1-14.2
		C9,280.7,5.7,277.5,0.3,275.7z"/>
	<path d="M12.5,44.9c6.8-6.9,9.8-9.6,13.9-12c3.5-2.1,7.4-3.2,11.4-3.2c1.8,0,3.7,0.2,5.5,0.7c17.4,4.1,43,7,54.1,7
		c6.2,0,25.9-4.5,32.1-7c4.3-0.7,8.2-1,12.4-1c4.7,0,9.7,0.4,15.8,1.1c6.5,0.8,10.2,1.1,12.7,1.1c2.1,0,3.4-0.3,4.9-0.7
		c4.5-1.5,6.6-5.4,6.6-13c0-7.1,0.8-12.2,2.7-17.9h-0.9c-2,6.1-2.7,11.1-2.7,17.8c0,7.2-1.9,10.8-5.9,12.1c-1.4,0.4-2.6,0.7-4.5,0.7
		c-2.5,0-6-0.4-12.6-1.2c-6.2-0.7-11.2-1.1-15.9-1.1c-4.3,0-8.3,0.3-12.6,1c-6.2,2.5-25.8,7-31.9,7c-11.1,0-36.6-2.9-53.9-7
		c-1.9-0.5-3.8-0.7-5.7-0.7c-4.2,0-8.3,1.1-12,3.3c-4.2,2.4-7.2,5.1-13.5,11.5c-5.9,5.9-9,8.8-12.5,10.9v1.3
		C3.7,53.5,6.9,50.6,12.5,44.9z"/>
	<path d="M26,266.3c-4.3-4.9-10.7-7.3-19.6-7.3c-2,0-4.1,0.1-6.4,0.4v1c2.2-0.2,4.2-0.3,6.1-0.3c8.8,0,15,2.3,19,7.1
		c4.5,5.3,1.1,19.5-5.3,32.9H21C27.5,286.4,30.9,271.9,26,266.3z"/>
	<path d="M223.9,72.3c7.2-4.4,13.1-9.7,17-15.3c3.5-5.1,5.7-12.4,6.6-21.2c0.9-9.3,0.8-18.6-0.4-27.8c-0.1-3-0.2-5.1-0.6-8h-1
		c0.4,2.6,0.4,4.4,0.4,6.8l0.6,5.1c0.7,7.9,0.8,16.2,0,23.9c-1,8.6-3,15.7-6.5,20.7c-3.8,5.6-9.7,10.8-16.8,15.1
		C223.5,71.9,223.7,72.1,223.9,72.3z"/>
	<path d="M273.3,43.1c-2.4,7.4-6.1,14.3-11.1,20.3C256.4,70.2,250,76.5,243,82c-2.8,2.2-5.7,4.3-8.6,6.2c0.1,0.3,0.3,0.6,0.4,0.9
		c3-1.9,5.9-4.1,8.8-6.4c7-5.6,13.5-11.9,19.3-18.8c5.1-6.1,8.9-13.1,11.4-20.7c3.8-11.7,4.4-24.7,0.8-38.8c-0.4-1.5-0.8-3-1.1-4.4
		h-1.3c0.4,1.6,0.8,3.3,1.3,4.9C277.7,18.8,277.1,31.6,273.3,43.1z"/>
	<path d="M236.6,92.6c0.1,0.3,0.2,0.5,0.3,0.8c2.8-1.8,5.5-3.7,8-5.5c7.5-5.4,26.5-21.5,34.1-29.1c6.9-6.9,12.1-36.6,12.1-57.3
		c0-0.5,0-1,0.1-1.5H290c0,0.6,0,1.2,0,1.9c0,20.5-5.2,50-11.8,56.6c-7.5,7.5-26.5,23.6-33.9,28.9C241.9,89.1,239.3,90.9,236.6,92.6
		z"/>
	<path d="M142.9,282.8c0.1,0,0.3,0,0.4,0c4.5-0.3,10.8-5.2,15.9-13c3.2-4.9,5.2-10.6,8.2-21.8l0.6-2.3c-0.5,0.5-1,0.9-1.5,1.4
		l-0.2,0.7c-2.9,11.1-4.9,16.7-8,21.5c-4.9,7.6-11,12.2-15.1,12.5c-0.1,0-0.2,0-0.3,0c-3.3,0-3.6-3.4,0.2-9c2.4-3.5,4.5-7,6.1-10.6
		c-0.2-0.1-0.4-0.3-0.7-0.6c-1.7,3.7-3.7,7.2-6.2,10.7C138.1,278.4,138.6,282.8,142.9,282.8z"/>
	<path d="M212.6,60.8c8.8-6,14.5-12.9,15.2-19c0.3-2.5,0.4-2.9,2.7-11c2.4-8.1,3.3-13.1,2.8-18.6c-0.2-2.3-0.7-4.5-1.5-6.7
		c-0.6-1.6-1.2-3.5-1.7-5.5h-1c0.5,2.2,1.1,4.2,1.7,5.9c0.8,2,1.3,4.2,1.5,6.4c0.5,5.3-0.4,10.3-2.7,18.2c-2.4,8.2-2.5,8.6-2.8,11.1
		c-0.6,5.8-6.3,12.6-15,18.5C212,60.3,212.3,60.5,212.6,60.8z"/>
	<path d="M230.8,81.9c0.1,0.1,0.2,0.3,0.3,0.4c11.4-7.3,20.6-16.9,26.8-28.8c5.1-9.9,7.1-20.2,6.6-31.2c-0.3-7.1-1.5-13.6-3.8-22.3
		h-1c2.4,9,3.6,15.7,3.9,22.9c0.5,10.8-1.5,20.9-6.5,30.7C251,65.3,241.9,74.8,230.8,81.9z"/>
	<path d="M10.6,14.8c2.4,0,4.3-0.7,6.7-2.2c0.5-0.3,2.2-1.4,2.3-1.5c3.7-2.3,6.5-3.3,11-3.3s10.2,0.8,28.6,3.5l1.5,0.2
		c15.6,2.3,23.5,3.3,28.9,3.3c5.3,0,13.2-0.4,28.8-1.4l1.5-0.1c18.5-1.2,24.2-1.5,28.7-1.5c7.9,0,11.9-2.4,16-11.8h-2.3
		c-3.6,7.9-7.1,9.8-13.8,9.8c-4.6,0-10.3,0.3-28.8,1.5l-1.5,0.1c-15.5,1-23.4,1.4-28.6,1.4s-13.1-1-28.6-3.3l-1.5-0.2
		C40.9,6.5,35.2,5.8,30.6,5.8c-4.9,0-8.1,1.1-12,3.7c-0.1,0.1-1.8,1.2-2.3,1.4c-2.1,1.3-3.7,1.9-5.7,1.9c-1.6,0-2.1-0.5-2.1-2.2
		c0-1.3,0.2-2.5,0.5-3.7c0.2-0.8,0.9-4.4,1.1-5.3c0.1-0.5,0.2-1.1,0.3-1.6H8.3c0,0.4-0.1,0.8-0.2,1.2C7.9,2.1,7.2,5.7,7,6.5
		c-0.3,1.8-0.5,3.1-0.5,4.1C6.5,13.4,7.8,14.8,10.6,14.8z"/>
	<path d="M13.4,31.2c2.1-1.9,4.3-3.7,6.5-5.5c3.6-2.8,6.8-4.7,9.5-5.6c2.9-0.9,8-1.4,14.3-1.4c12.2,0,28.7,1.7,40.4,4.4
		c2.6,0.6,5.3,1,8,1.1c1.1,0,2.1,0.1,3,0.1c3.8,0,7.1-0.5,20.7-2.6c11-1.7,19.3-2.6,29.5-2.6c5.2,0,16,0.3,15,0.3
		c3.2,0,4.4-0.2,5.1-1.2c0.4-0.6,0.6-1.3,0.7-2.1l0.3-1.4l0.4-1.8c0.8-3.5,2.3-7.3,4.9-12c0.2-0.3,0.4-0.6,0.5-0.9h-0.8
		c-0.1,0.2-0.2,0.4-0.3,0.6c-2.6,4.8-4.1,8.6-5,12.2l-0.4,1.8l-0.3,1.4c-0.2,0.9-0.3,1.4-0.6,1.7c-0.4,0.6-1.1,0.8-3.1,0.8
		c-0.4,0-0.8,0-1.2,0c0.9,0-9.8-0.3-15-0.3c-10.2,0-18.5,0.8-29.6,2.6c-12.9,2.1-16.4,2.6-20,2.6c-1.1,0-2.2,0-3.5-0.1
		c-2.7-0.1-5.2-0.5-7.8-1.1c-11.8-2.8-28.2-4.4-40.5-4.4c-6.4,0-11.7,0.5-14.8,1.4c-2.8,0.9-6.1,2.9-9.8,5.7
		c-2.1,1.6-4.2,3.4-6.6,5.5c-1.4,1.3-9.2,8.5-10.8,9.8c-0.4,0.3-1.2,1-2.1,1.8v1.3c1.2-1.1,2.2-2,2.6-2.3
		C4.2,39.7,12,32.4,13.4,31.2z"/>
	<path d="M201.9,52.7c0.2,0.2,0.5,0.3,0.7,0.5c7.8-5.6,12.2-13.1,12.2-22.6c0-7-0.2-11.9-0.6-21.6c-0.2-3.3-0.3-6.3-0.4-9h-0.9
		c0.1,2.5,0.2,5.1,0.4,8.1c0.5,10.8,0.7,15.7,0.7,22.7C214,40.1,209.7,47.2,201.9,52.7z"/>
	<path d="M64.8,2.9c21.7,3.3,22.6,3.5,25.9,3.5c0.3,0,0.7,0,1.1,0c23,0,49.3-2,59.5-6.4h-2.7c-11.2,3.7-35.5,5.4-56.7,5.4
		c-0.4,0-0.8,0-1.1,0c-3.1,0-4-0.2-25.7-3.5C59.9,1.1,55.9,0.5,52,0h-9.5c2.9,0.3,6,0.6,9.3,1C55.6,1.5,59.7,2.1,64.8,2.9z"/>
	<path d="M181.6,42.8c3.2-1.8,6.2-4.2,8.9-7.2c5.7-6.1,6.1-10.3,3.9-16.8c-0.8-2.3-1-2.9-1.1-3.9c-0.2-1.9,0.4-3.5,2.1-5.3
		c1.9-1.9,3.4-5.1,4.7-9.6H198c-1.1,3.8-2.5,6.6-4,8.2c-2.2,2.2-3,4.4-2.7,6.9c0.1,1.2,0.3,1.9,1.2,4.3c2,5.9,1.6,9.3-3.5,14.8
		c-3.1,3.3-6.5,5.9-10.2,7.7C179.8,42.2,180.7,42.5,181.6,42.8z"/>
	<path d="M9.7,107.8c1.6-3.4,2.3-6,3.5-12.1c1.6-8,2.8-11.5,5.9-15.8c4.1-5.6,11.1-10.4,22.3-14.8c8.2-3.3,14.5-4.8,20.5-4.8
		c5.5,0,10.7,1.3,16.7,3.7l3.2,1.2c0.2,0.1,0.5,0.2,0.7,0.3c0.2-0.2,0.5-0.5,0.7-0.7c-0.3-0.1-0.6-0.2-1-0.4L79,63.1
		c-6.1-2.4-11.4-3.7-17-3.7c-6.1,0-12.5,1.5-20.9,4.8c-11.3,4.5-18.4,9.4-22.7,15.2c-3.3,4.4-4.5,8.1-6.1,16.2
		c-1.2,6-1.9,8.6-3.4,11.9s-3.7,5.4-6.6,6.7c-0.8,0.4-1.5,0.6-2.4,0.9v0.9c0.9-0.3,1.8-0.6,2.6-1C5.7,113.6,8,111.3,9.7,107.8z"/>
	<path d="M282.5,178.1c-7.3,2.7-11.8,5.6-14.4,9c-2,2.7-2.8,5.1-3.5,10.2c-0.9,6-1.5,8.5-3.4,12.3c-4.2,8.5-9.2,12-21.1,17.4l-2.3,1
		c-5.1,2.3-8.3,4-11.4,6.4c-13.1,9.8-16.2,14.4-32.1,49.2c-3,6.5-6,11.9-9.1,16.4h0.9c3-4.4,5.9-9.8,8.9-16.1
		c15.9-34.6,19-39.1,31.9-48.8c3.1-2.3,6.2-4,11.2-6.3l2.3-1c6-2.7,8.8-4.1,11.9-6.4c4.1-3,7.4-6.9,9.7-11.4
		c1.9-3.9,2.6-6.5,3.5-12.6c0.8-5,1.4-7.3,3.3-9.8c2.4-3.2,6.8-6,13.9-8.7c3.9-1.4,7.9-2.7,12-3.7c1.9-0.5,3.6-0.9,5.3-1.4V173
		c-1.7,0.4-3.6,0.9-5.5,1.4C289.8,175.6,285.8,176.9,282.5,178.1z"/>
	<path d="M265.1,161.7c-8.5,5-15.4,13.2-20,25c-1.2,3.3-2.7,6.6-4.5,9.7c-3.5,6-6.7,8.7-13,11.8l-4,2c-5.6,2.7-10.8,6.2-15.4,10.4
		c-8.3,7.4-13.9,16.8-22.8,35.9l-2.1,4.5c-7.2,15.6-11.4,23.2-17.2,29.6c-3.1,3.6-7.1,6.6-12.2,9.4h1.6c4.6-2.6,8.3-5.5,11.2-8.9
		c5.9-6.6,10.1-14.2,17.4-29.9l2.1-4.5c8.8-19,14.3-28.3,22.5-35.6c4.5-4.1,9.6-7.6,15.2-10.2l4-2c6.5-3.2,9.8-6,13.4-12.2
		c1.8-3.1,3.3-6.4,4.6-9.8c4.5-11.6,11.2-19.6,19.5-24.5c6.1-3.6,12.6-5.2,18-5.2c5.8,0,10.8-0.1,16.6-0.4V156
		c-5.7,0.3-10.6,0.4-16.4,0.4C278,156.4,271.4,158.1,265.1,161.7z"/>
	<path d="M54.1,269.7c1.9-0.4,2.3-0.5,3.1-0.7c9.4-2.1,14.7-4.9,18.7-11.1c10.2-15.8,5.7-30.7-9.2-38.7c-4.5-2.4-7.1-3.4-9.1-3.4
		c-0.7,0-1.3,0.1-1.9,0.3c-0.7,0.2-1.5,0.6-2.4,1.2c-0.6,0.4-2.8,1.8-3,1.9c-3.2,2-6.5,3.7-10,5.1c-1.8,0.8-3.5,1.5-5,2.4
		c-2.5,1.3-4.8,3-6.8,5c-1.1,1.1-3.8,4.2-3.9,4.2l0,0c-2.3,2.4-4.2,3.4-8.2,3.4c-6,0-9,1.5-12.3,5.5c-0.2,0.3-2,2.5-2.6,3.2
		c-0.5,0.6-1,1.1-1.5,1.7v1.6c0.8-0.8,1.6-1.6,2.3-2.4c0.6-0.7,2.4-2.9,2.6-3.2c3.2-3.8,5.9-5.2,11.6-5.2c4.2,0,6.4-1,8.9-3.7
		c1.2-1.4,2.5-2.8,3.8-4.2c2-2.1,4.2-3.7,6.6-5l0,0c1.5-0.8,3.1-1.6,4.9-2.3c3.5-1.4,6.9-3.2,10.2-5.2c0.2-0.1,2.4-1.5,2.9-1.8
		c0.9-0.5,1.6-0.9,2.2-1.1c0.5-0.2,1-0.2,1.6-0.2c1.9,0,4.2,1,8.6,3.3c14.4,7.7,18.7,22,8.8,37.3c-3.9,6-9,8.6-18.1,10.7
		c-0.8,0.2-1.2,0.3-3.1,0.7c-6.1,1.3-8.9,2.1-11.9,3.8c-3.9,2.1-6.5,5.3-8,10c-1.9,6.2-4.1,11.9-6.6,17.2h1
		c2.5-5.3,4.7-11.1,6.6-17.3c1.4-4.5,3.9-7.4,7.5-9.4C45.3,271.7,48.1,270.9,54.1,269.7z"/>
	<path d="M240.6,169.1c-0.9,1.5-4.3,7.7-5.1,9.2c-5.2,8.9-9.7,14.8-15.2,18.5c-0.8,0.8-1.5,1.6-2.3,2.4c7.1-3.6,12.3-9.9,18.4-20.5
		c0.9-1.5,4.3-7.6,5.1-9.2c3.5-6,6.1-9.5,9.1-11.7c9.9-7.2,28.1-10.9,49.4-10.9V146c-21.5,0-39.8,3.7-50,11.1
		C246.9,159.4,244.1,163,240.6,169.1z"/>
	<path d="M283.4,212.4c-1.4,2.3-2.6,4.7-4,7.7c-0.1,0.3-2.4,5.5-3,6.8c-0.8,1.7-1.8,3.4-3,4.9c-1.8,2-4,3.5-11.4,8.2
		c-8,5-12.4,8-17.5,12.2c-8.9,7.3-15.9,15.6-21.1,25.7c-4.2,8.2-8.3,15.6-12.1,22.1h1.1c3.7-6.4,7.7-13.7,11.8-21.7
		c5.2-10,12.1-18.2,20.9-25.4c5.1-4.2,9.5-7.2,17.4-12.2c7.5-4.7,9.7-6.2,11.6-8.3c1.3-1.6,2.3-3.3,3.1-5.1c0.6-1.3,2.9-6.5,3-6.8
		c1.1-2.6,2.5-5.2,3.9-7.6c4-6.6,9-11.8,15.8-15.4v-1.1C292.8,200.1,287.5,205.5,283.4,212.4z"/>
	<path d="M295.8,210.7c-2.2,2.8-10.8,17.5-12.7,20.4c-5.6,8.4-11.5,14.6-18.8,18.7c-8.7,5-17.6,14.4-27,27.5
		c-3.7,5.2-10.4,15.7-14.8,22.7h1.4c4.4-7,10.8-17,14.4-22c9.3-13,18.1-22.3,26.6-27.2c7.4-4.2,13.4-10.5,19.1-19
		c2-2.9,10.5-17.6,12.7-20.3c1.2-1.5,2.3-2.5,3.4-3.2V207C298.6,207.7,297.2,208.9,295.8,210.7z"/>
	<path d="M268.5,92.1c-4.9,5.8-4.8,10.4,1.5,13.6c12.9,6.5,18.2,8.7,23.6,9.5c1,0.1,1.9,0.2,2.9,0.2c1.2,0,2.4-0.1,3.5-0.4v-2.2
		c-1.1,0.3-2.3,0.4-3.6,0.4c-0.8,0-1.7-0.1-2.6-0.2c-5-0.7-10.2-2.9-22.9-9.3c-5-2.5-5.1-5.6-0.9-10.5c3.2-3.8,3.4-4,19.1-16.2
		c4.5-3.5,8-6.4,10.9-9v-2.6c-3.1,2.9-6.9,6.1-12.1,10.2C272,88.1,271.9,88.2,268.5,92.1z"/>
	<path d="M243.9,148.9c-0.1,0.5-0.2,1-0.3,1.5c7.6-5.9,18-8.5,32.1-8.5c7.9,0,15.2-0.8,24.2-2.4v-1c-9.1,1.7-16.4,2.5-24.3,2.5
		C261.9,141,251.7,143.4,243.9,148.9z"/>
	<path d="M296.2,56.3c-2.2,1.9-4.6,4.3-8.1,7.8l-1.1,1.1c-8,8.1-10,10.1-12.8,12c-1,0.7-5.3,3.6-5.3,3.6l0,0c-2.2,1.5-4.4,3-6.5,4.6
		c-8.4,6.3-13.5,11.9-14.9,17.3c-1.1,4.6,0.6,8.7,5.6,12.3c2.5,1.8,5.4,2.6,10.2,3l1.7,0.2c5,0.4,7,0.7,9.1,1.9
		c0.6,0.4,4.5,2.7,5.8,3.4c5.4,3.1,10,4.8,14.4,4.8c1.2,0,2.4-0.1,3.6-0.4c0.7-0.2,1.4-0.4,2.1-0.6v-0.9c-0.7,0.2-1.4,0.5-2.1,0.7
		c-1.1,0.2-2.2,0.3-3.3,0.3c-4.2,0-8.7-1.6-14-4.6c-1.3-0.7-5.1-3-5.8-3.4c-2.2-1.3-4.4-1.6-9.5-2l-1.7-0.1
		c-4.6-0.4-7.4-1.1-9.7-2.8c-4.7-3.4-6.3-7.1-5.3-11.3c1.2-5.1,6.3-10.6,14.5-16.7c2-1.5,4-2.9,6.5-4.6l0,0c0,0,4.3-2.9,5.3-3.6
		c2.8-2,4.9-4,12.9-12.2c2.9-3.1,6-6.1,9.2-8.9c1.1-1,2.1-2.1,3-3.5v-2.2C298.8,53.6,297.7,55,296.2,56.3z"/>
	<path d="M264.6,134c-2.2,0-4.6,0-7.3,0h-5.5c-2.1,0-4.3,0.4-6.5,1.3c0,0.4,0,0.9,0,1.3c2.1-0.8,4.2-1.3,6.2-1.3h5.5
		c2.6,0,5.1,0,7.3,0c6.7,0,12-0.1,17.7-0.3c6.9-0.3,13-0.8,18-1.6v-1.3c-4.9,0.8-10.9,1.3-17.8,1.6C276.6,133.9,271.3,134,264.6,134
		z"/>
	<path d="M288.2,94.1c0.8,0.5,1.5,0.9,2.2,1.4l2,1.3c1.1,0.8,2.4,1.4,3.6,2c1.3,0.5,2.5,0.8,3.9,0.8h0.1v-0.9
		c-1.2,0-2.3-0.3-3.4-0.7c-1-0.4-2-1-3.5-1.9l-2-1.3l-2.3-1.4c-2.6-1.6-2.2-3,1-5.7c1-0.8,6.3-4.6,10.2-7.4v-1.4
		c-3.9,2.9-9.9,7.1-10.9,7.9C285.4,89.9,284.9,92.1,288.2,94.1z"/>
	<path d="M273,202.1c-4.1,5.3-6.8,10.8-6.8,13.7c0,6.3-5.2,12.2-19.4,18.1c-14.8,6.1-34,27.7-43.5,45.4c-2,3.7-3.1,6.5-5.1,12.7
		c-1,3-1.9,5.7-2.9,8h2.4c0.9-2.2,1.7-4.7,2.7-7.4c2-6.1,3-8.9,4.9-12.4c9.3-17.3,28.2-38.7,42.5-44.6c14.8-6.1,20.6-12.6,20.6-19.9
		c0-2.3,2.6-7.5,6.4-12.5c4.6-6,10.2-10.9,16-13.6c2.7-1.2,5.8-2.4,9.2-3.5V184c-3.7,1.2-7.2,2.5-10.2,3.9
		C283.7,190.7,277.8,195.9,273,202.1z"/>
	<path d="M103,250c3.2-9.2-2-21-12.7-32.5c-9-9.6-20.4-17.2-25.7-17.2c-10.9,0-25.9,5.6-36.3,14.1c-3.6,3-7.6,4.6-13.1,5.9
		c-1.4,0.3-2.3,0.5-5.1,1c-4.4,0.8-7.6,1.6-10.1,2.6v1.1c2.5-1,5.6-1.8,10.2-2.7c2.8-0.5,3.7-0.7,5.1-1c5.6-1.3,9.7-3,13.5-6.1
		c10.2-8.4,25-13.9,35.7-13.9c5,0,16.2,7.4,25,16.8c10.5,11.2,15.6,22.7,12.5,31.5c-3.1,8.9-11.2,18.2-22.7,27.4
		c-8.4,6.7-18.2,12.9-25,16.3c-2.9,1.5-5.3,3.6-7.7,6.7H48c2.1-2.6,4.2-4.4,6.8-5.7c6.9-3.4,16.8-9.7,25.2-16.4
		C91.6,268.6,99.9,259.1,103,250z"/>
	<path d="M56,283.5l2-1c0.8-0.5,1.7-0.9,3-1.5c7.9-3.5,11.3-5.8,17.3-13.8c0.9-1.2,7.5-9.5,8.6-11.3c2-3.3,2.6-6.7,2.6-14.3l0,0
		c0-7.1-4.5-16.5-11-23.7c-5.6-6.2-12-9.9-17.9-9.9c-1.5,0-3,0.2-4.4,0.8c-13.9,5-16,6-25.2,12c-2.3,1.5-9.4,6.7-11,7.7
		c-3.5,2.2-6.5,3.2-10.5,3.2c-4.4,0-7.2,0.4-9.5,1.8v2.3c2.2-1.8,4.8-2.2,9.5-2.2c4.3,0,7.7-1.1,11.5-3.5c1.6-1,8.8-6.2,11-7.7
		c9.1-5.9,11.1-6.9,24.8-11.8c1.2-0.4,2.5-0.7,3.8-0.7c5.2,0,11.1,3.4,16.4,9.3c6.3,7.1,10.5,16,10.5,22.5c0,7.2-0.5,10.3-2.3,13.3
		c-1,1.7-7.5,9.8-8.5,11.1c-5.7,7.6-8.8,9.8-16.5,13.1c-1.4,0.6-2.3,1.1-3.2,1.6c-0.5,0.3-1.1,0.6-1.8,0.9s-4.4,1.9-5.5,2.4
		c-6.7,3.1-10.2,6.6-10.2,12.5c0,1-0.2,2.2-0.6,3.5H41c0.3-1.2,0.5-2.4,0.5-3.4c0-4.9,2.9-8,9-10.7C51.6,285.4,55.3,283.8,56,283.5z
		"/>
	<path d="M45.3,255.2c5.3,3,10.6,4.6,15.2,4.6c5.6,0,10-2.5,11.5-7.9c3.7-13.3,1.9-22.9-7.3-26.6c-2.3-0.9-4.4-1.4-6.4-1.4
		c-2.6,0-5,0.7-7.6,2.1c-1.3,0.7-2.6,1.5-3.9,2.3l-2,1.3c-1.5,1-3,1.9-4.5,2.7C31.5,237.2,35.1,249.5,45.3,255.2z M40.8,233.3
		c0.8-0.4,1.6-0.9,2.4-1.4c0.7-0.4,1.3-0.8,2.2-1.4l2-1.3c1.2-0.8,2.4-1.6,3.8-2.2c2.5-1.3,4.8-1.9,7.2-1.9c1.9,0,3.8,0.4,6,1.2
		c8.6,3.4,10.3,12.6,6.7,25.4c-1.4,4.9-5.4,7.1-10.7,7.1c-4.3,0-9.5-1.5-14.6-4.4C36.2,249.1,32.9,237.7,40.8,233.3z"/>
	<path d="M47.8,245.4c0.5,0.3,1,0.5,1.6,0.9l1.9,0.9c2.6,1.3,5.6,2.1,8.3,2.1c1,0,1.9-0.1,2.8-0.3c4.2-0.9,6.6-4.2,6.6-9.9
		c0-6.8-4.7-10.3-10-10.3c-3.9,0-8,1.9-10.9,5.7C43.6,240.5,43.7,243,47.8,245.4z M48.8,235.1c2.5-3.3,6.6-5.3,10.5-5.3
		c0.4,0,0.9,0,1.3,0.1c4.5,0.6,7.4,3.9,7.4,9.2s-2.1,8.1-5.9,9c-0.8,0.2-1.6,0.3-2.4,0.3c-2.6,0-5.5-0.8-8-2l-1.9-0.9
		c-0.7-0.3-1.1-0.6-1.6-0.9C44.7,242.6,44.7,240.7,48.8,235.1z"/>
	<path d="M120.8,236.5c-0.4-0.3-0.7-0.6-1.1-1c0.3,3.4,0.4,7.1,0.4,11.3c0,8.2-0.6,12.7-3.6,18.5c-4.1,8.2-12,15.8-25.2,23
		c-6.9,3.8-13,7.7-18.6,11.7h2c5.1-3.6,10.8-7.2,17.1-10.6c13.3-7.3,21.4-15.1,25.6-23.5c3-6,3.7-10.6,3.7-19
		C121.1,243.1,121,239.7,120.8,236.5z"/>
	<path d="M169.4,269.2c2.6-4.9,4.6-10,6.2-15.3c0.9-3,3.2-11.7,3.4-12.5c0.4-1.6,1-3.2,1.7-4.7c0.8-1.7,1.8-3.4,2.8-5.1
		c-0.7,0.7-1.5,1.3-2.2,2c-0.5,0.9-0.9,1.8-1.4,2.7c-0.7,1.6-1.3,3.2-1.8,4.8c-0.2,0.8-2.5,9.5-3.4,12.5c-1.5,5.2-3.6,10.3-6.1,15.1
		c-6.1,11.4-15.2,20.2-28.5,26.3c-6.7,3.1-11.7,4.7-15,5h5c2.9-0.8,6.3-2.2,10.3-4C153.9,289.8,163.2,280.8,169.4,269.2z"/>
	<path d="M287.4,275.1c-4.6,5.5-5,9.5-0.2,12.1c3,1.7,5.9,3.6,8.6,5.7c0.5,0.4,2.2,1.7,4.2,3.1v-1.3c-1.6-1.2-3-2.2-3.5-2.6
		c-3.8-2.8-6.5-4.6-8.7-5.8c-4.1-2.2-3.8-5.5,0.5-10.6c2.6-3.1,3.7-4.2,11.7-10.9v-1.3C291.3,270.8,290.2,271.8,287.4,275.1z"/>
	<path d="M119.9,295c0.9-5.1,6.3-13.5,12.8-21.3c1.9-2.2,3.5-4.6,4.9-7.1c2-3.7,3.3-7,4-11.2c-0.3-0.3-0.6-0.5-0.9-0.8
		c-0.7,4.6-2,7.9-4.1,11.8c-1.4,2.5-3,4.8-4.8,7c-6.6,7.9-12,16.4-13,21.7c-0.4,2.3-0.1,4,1.1,5h3.1
		C120.3,299.7,119.4,297.9,119.9,295z"/>
	<path d="M285.3,262.7c-0.6,0.4-3.2,2.5-3.9,3c-1.5,1.1-2.6,2.1-3.7,3c-4.3,3.7-6.4,6.8-6.3,10.3c0.1,5.1,8,13.4,18,21h3.5
		c-10.5-7.7-19.4-16.5-19.5-21.1c-0.1-2.7,1.7-5.4,5.6-8.7c1.2-1,2.4-2,3.6-2.9l3.9-3c4.6-3.5,7.4-6,9.7-8.8c1.2-1.5,2.5-3,3.8-4.6
		v-3.1c-1.9,2.1-3.7,4.3-5.4,6.4C292.5,256.9,289.7,259.3,285.3,262.7z"/>
	<path d="M246.6,298.1c-1.2-0.6-2.3-1.2-3.5-1.7c-1.7-0.8-3.1-1.1-4.3-1.2c-0.1,0-0.1,0-0.2,0c-2.6,0-4.7,1.5-6.7,4.8h1.3
		c1.7-2.6,3.4-3.6,5.3-3.6c0.1,0,0.1,0,0.2,0c1.9,0.1,1.2-0.2,8.7,3.4c0.1,0.1,0.3,0.1,0.4,0.2h2.9c-0.9-0.4-1.9-0.8-2.9-1.3
		L246.6,298.1z"/>
	<path d="M289,245.6c-0.6,0.5-1.3,1-2.1,1.6l-4.1,2.9c-1.8,1.3-3.4,2.6-5.2,4c-4.6,3.8-9.8,8.7-16.3,15.5
		c-8.5,8.8-12.1,13.9-12,16.7c0.1,2.5,2,3,7.7,3.3c1.6,0.1,2.2,0.1,3,0.2c2.8,0.2,4.9,0.7,6.4,1.6c5.7,3.2,9.4,5.7,11.8,8.6h1.7
		c-2.5-3.4-6.5-6.1-12.8-9.7c-1.7-0.9-3.9-1.4-6.8-1.7c-0.8-0.1-1.4-0.1-3-0.2c-5.1-0.3-6.7-0.7-6.8-2.4c-0.1-2.4,3.5-7.4,11.7-16
		c6.5-6.8,11.7-11.6,16.2-15.4c1.7-1.4,3.4-2.7,5.2-4l4.1-2.9c0.8-0.6,1.5-1.1,2.1-1.6c3.3-2.6,6.2-5.7,10.3-11v-1.5
		c-0.3,0.4-0.5,0.7-0.8,1.1C295.2,240,292.3,243,289,245.6z"/>
</g>
<g>
	<path class="st2" d="M217.7,65.5l-0.2-0.2c-37.2-37.2-97.7-37-135,0.2c-37.2,37.2-37.3,97.9-0.1,135.1
		c16.8,16.8,67.1,61.8,67.1,61.8s50.8-45.5,67.8-62.5C254.6,162.9,254.8,102.7,217.7,65.5z M105.3,177.9
		c-24.8-24.8-24.8-65.1,0-89.9s65.1-24.8,89.9,0l-28.1,28.1c-9.3-9.3-24.4-9.3-33.7,0s-9.3,24.4,0,33.7s24.4,9.3,33.7,0l28.1,28.1
		C170.4,202.7,130.1,202.7,105.3,177.9z"/>
	<path class="st2" d="M217.7,65.5l-0.2-0.2c-37.2-37.2-97.7-37-135,0.2c-37.2,37.2-37.3,97.9-0.1,135.1
		c16.8,16.8,67.1,61.8,67.1,61.8s50.8-45.5,67.8-62.5C254.6,162.9,254.8,102.7,217.7,65.5z M105.3,177.9
		c-24.8-24.8-24.8-65.1,0-89.9s65.1-24.8,89.9,0l-28.1,28.1c-9.3-9.3-24.4-9.3-33.7,0s-9.3,24.4,0,33.7s24.4,9.3,33.7,0l28.1,28.1
		C170.4,202.7,130.1,202.7,105.3,177.9z"/>
</g>
</svg>
